<svg width="69" height="69" viewBox="0 0 69 69" fill="none" xmlns="http://www.w3.org/2000/svg">
<path fill-rule="evenodd" clip-rule="evenodd" d="M50.0249 34.5002C52.4728 34.501 54.8861 33.923 57.0679 32.8134C59.2497 31.7037 61.1383 30.0939 62.5794 28.1152C64.0205 26.1366 64.9733 23.8452 65.36 21.4282C65.7468 19.0111 65.5565 16.5368 64.8047 14.2073C64.4425 13.0895 63.0452 12.8584 62.2103 13.6898L52.923 22.9772C52.7089 23.2018 52.433 23.3578 52.1302 23.4254C51.8274 23.4929 51.5113 23.469 51.2221 23.3567C48.7004 22.305 46.6948 20.3019 45.64 17.7815C45.5274 17.4918 45.5034 17.1752 45.5709 16.8718C45.6385 16.5683 45.7946 16.2918 46.0195 16.0772L55.3138 6.78983C56.1418 5.95838 55.9141 4.55768 54.7963 4.19543C52.3859 3.41724 49.8216 3.24065 47.3272 3.68105C44.8329 4.12146 42.4841 5.16549 40.4859 6.72208C38.4877 8.27867 36.9007 10.3005 35.8633 12.6113C34.826 14.9221 34.3697 17.4516 34.5345 19.9792C34.7242 22.991 34.0928 26.2168 31.7745 28.1488L6.83095 48.9316C5.82985 49.7683 5.01395 50.8043 4.43519 51.9736C3.85642 53.1429 3.52748 54.42 3.46931 55.7234C3.41113 57.0268 3.625 58.3281 4.09729 59.5443C4.56958 60.7605 5.28994 61.8651 6.21251 62.7877C7.13509 63.7102 8.23965 64.4306 9.45589 64.9029C10.6721 65.3752 11.9734 65.5891 13.2768 65.5309C14.5802 65.4727 15.8572 65.1438 17.0266 64.565C18.1959 63.9862 19.2319 63.1703 20.0686 62.1692L40.8514 37.2257C42.7834 34.9073 46.0091 34.276 49.021 34.4657C49.3522 34.4899 49.6868 34.5002 50.0249 34.5002ZM17.2499 55.2002C17.2499 56.1152 16.8865 56.9928 16.2395 57.6398C15.5925 58.2868 14.7149 58.6502 13.7999 58.6502C12.885 58.6502 12.0074 58.2868 11.3604 57.6398C10.7134 56.9928 10.3499 56.1152 10.3499 55.2002C10.3499 54.2852 10.7134 53.4077 11.3604 52.7607C12.0074 52.1137 12.885 51.7502 13.7999 51.7502C14.7149 51.7502 15.5925 52.1137 16.2395 52.7607C16.8865 53.4077 17.2499 54.2852 17.2499 55.2002Z" fill="#009CDE"/>
<path d="M50.024 39.6753C50.6208 39.6753 51.2142 39.6512 51.7973 39.5994L64.7486 52.5507C66.3663 54.1684 67.2751 56.3625 67.2751 58.6503C67.2751 60.9381 66.3663 63.1322 64.7486 64.7499C63.1309 66.3676 60.9368 67.2765 58.649 67.2765C56.3612 67.2765 54.1671 66.3676 52.5494 64.7499L37.3349 49.5354L44.8283 40.5413C45.0077 40.3239 45.3354 40.0652 46.0082 39.8651C46.8818 39.6346 47.7886 39.5564 48.6888 39.6339C49.1304 39.6615 49.5755 39.6753 50.024 39.6753ZM20.699 15.822L28.7375 23.8605C28.6597 23.9759 28.5669 24.0803 28.4615 24.171L23.459 28.3386L15.8207 20.7003H11.415C11.095 20.7003 10.7812 20.6112 10.5088 20.4431C10.2365 20.2749 10.0163 20.0343 9.87289 19.7481L4.00789 8.01121C3.84582 7.68768 3.7896 7.32137 3.84718 6.96412C3.90476 6.60688 4.07322 6.27679 4.32874 6.02056L6.01924 4.33006C6.27506 4.07398 6.60496 3.90487 6.96223 3.84667C7.31949 3.78846 7.68601 3.84412 8.00989 4.00576L19.7468 9.87076C20.034 10.0147 20.2753 10.2359 20.4436 10.5096C20.6118 10.7833 20.7003 11.0986 20.699 11.4198V15.822Z" fill="#009CDE"/>
</svg>
